<svg xmlns="http://www.w3.org/2000/svg" width="512" height="512" viewBox="0 0 512 512" version="1.1">
	<path d="M 47 0.690 C 27.547 3.943, 10.331 18.686, 2.755 38.580 L 0.500 44.500 0.236 252.784 C -0.055 482.815, -0.469 467.147, 6.262 480.935 C 10.604 489.831, 22.164 501.393, 31.053 505.732 C 44.697 512.393, 29.472 511.970, 256 511.970 C 482.183 511.970, 467.127 512.382, 480.875 505.821 C 493.937 499.587, 506.809 483.533, 509.997 469.500 C 510.622 466.750, 511.553 463.719, 512.066 462.764 C 513.138 460.770, 513.396 47.270, 512.325 48.342 C 511.954 48.713, 510.842 45.836, 509.855 41.949 C 507.288 31.841, 503.557 25.565, 494.964 16.903 C 489.672 11.569, 485.476 8.375, 480.875 6.179 C 467.113 -0.389, 482.306 0.017, 255.500 0.151 C 142.200 0.218, 48.375 0.460, 47 0.690 M 48.526 11.067 C 30.114 14.145, 14.081 30.445, 11.042 49.175 C 9.669 57.636, 9.616 454.064, 10.986 462.500 C 12.314 470.670, 18.097 482.002, 23.901 487.806 C 30.126 494.030, 40.783 499.597, 49.040 500.937 C 57.908 502.376, 453.965 502.396, 462.825 500.958 C 479.084 498.320, 492.378 487.087, 499.184 470.236 L 501.500 464.500 501.500 256 L 501.500 47.500 499.184 41.764 C 492.378 24.913, 479.084 13.680, 462.825 11.042 C 455.101 9.788, 56.029 9.812, 48.526 11.067 M 0.491 256 C 0.491 370.125, 0.607 416.813, 0.750 359.750 C 0.893 302.688, 0.893 209.313, 0.750 152.250 C 0.607 95.188, 0.491 141.875, 0.491 256 M 98.500 92.940 C 97.400 93.393, 95.600 94.764, 94.500 95.987 C 92.594 98.105, 92.500 99.618, 92.500 128.082 L 92.500 157.955 95.273 160.727 L 98.045 163.500 256 163.500 L 413.955 163.500 416.727 160.727 L 419.500 157.955 419.500 128 L 419.500 98.045 416.727 95.273 L 413.955 92.500 257.227 92.308 C 171.027 92.203, 99.600 92.488, 98.500 92.940 M 99.419 195.075 C 97.724 195.567, 95.474 196.923, 94.419 198.088 C 92.639 200.053, 92.478 202.253, 92.194 228.500 C 91.856 259.666, 92.348 263.041, 97.517 265.006 C 101.109 266.372, 410.891 266.372, 414.483 265.006 C 419.652 263.041, 420.144 259.666, 419.806 228.500 C 419.463 196.826, 419.520 197.072, 412.100 195.011 C 407.504 193.734, 103.822 193.796, 99.419 195.075 M 96.786 298.546 C 92.320 300.982, 91.841 304.801, 92.186 335.229 L 92.500 362.958 95.273 365.729 L 98.045 368.500 203.273 368.758 C 301.985 369.001, 308.717 368.908, 312 367.258 C 317.726 364.382, 318.173 361.542, 317.813 330.271 L 317.500 303.042 314.727 300.271 L 311.955 297.500 205.727 297.283 C 113.535 297.094, 99.141 297.261, 96.786 298.546" stroke="none" fill="black" fill-rule="evenodd"/>
</svg>